<?xml version="1.0" encoding="UTF-8" standalone="no"?>
<!-- Created with Inkscape (http://www.inkscape.org/) -->

<svg
   xmlns:dc="http://purl.org/dc/elements/1.1/"
   xmlns:cc="http://creativecommons.org/ns#"
   xmlns:rdf="http://www.w3.org/1999/02/22-rdf-syntax-ns#"
   xmlns:svg="http://www.w3.org/2000/svg"
   xmlns="http://www.w3.org/2000/svg"
   xmlns:sodipodi="http://sodipodi.sourceforge.net/DTD/sodipodi-0.dtd"
   xmlns:inkscape="http://www.inkscape.org/namespaces/inkscape"
   version="1.1"
   id="svg2"
   xml:space="preserve"
   width="54"
   height="54"
   viewBox="0 0 53.999999 54"
   sodipodi:docname="icon.svg"
   inkscape:version="0.92.0 r15299"><metadata
     id="metadata8"><rdf:RDF><cc:Work
         rdf:about=""><dc:format>image/svg+xml</dc:format><dc:type
           rdf:resource="http://purl.org/dc/dcmitype/StillImage" /><dc:title></dc:title></cc:Work></rdf:RDF></metadata><defs
     id="defs6"><clipPath
       clipPathUnits="userSpaceOnUse"
       id="clipPath20"><path
         d="M 0,66.349 H 199.987 V 0 H 0 Z"
         id="path18"
         inkscape:connector-curvature="0" /></clipPath></defs><sodipodi:namedview
     pagecolor="#ffffff"
     bordercolor="#666666"
     borderopacity="1"
     objecttolerance="10"
     gridtolerance="10"
     guidetolerance="10"
     inkscape:pageopacity="0"
     inkscape:pageshadow="2"
     inkscape:window-width="1366"
     inkscape:window-height="703"
     id="namedview4"
     showgrid="false"
     inkscape:zoom="2.167641"
     inkscape:cx="-79.077587"
     inkscape:cy="16.889427"
     inkscape:window-x="0"
     inkscape:window-y="0"
     inkscape:window-maximized="1"
     inkscape:current-layer="g10" /><g
     id="g10"
     inkscape:groupmode="layer"
     inkscape:label="logo_final"
     transform="matrix(1.3333333,0,0,-1.3333333,0,53.999998)"><g
       id="g4791"
       transform="translate(-14.531927,-13.147934)"><g
         transform="translate(43.2793,15.7783)"
         id="g22"><path
           inkscape:connector-curvature="0"
           id="path24"
           style="fill:#bbcd13;fill-opacity:1;fill-rule:nonzero;stroke:none"
           d="m 0,0 c 0,-1.283 -3.684,-2.322 -8.229,-2.322 -4.541,0 -8.225,1.039 -8.225,2.322 0,1.284 3.684,2.323 8.225,2.323 C -3.684,2.323 0,1.284 0,0" /></g><g
         transform="translate(41.2617,38.3989)"
         id="g26"><path
           inkscape:connector-curvature="0"
           id="path28"
           style="fill:#ffffff;fill-opacity:1;fill-rule:nonzero;stroke:none"
           d="m 0,0 c -0.359,-0.727 -0.85,-1.313 -1.47,-1.763 -0.622,-0.449 -1.346,-0.78 -2.177,-0.988 -0.831,-0.21 -1.726,-0.312 -2.682,-0.312 v -3.571 h -4.782 V 8.338 h 4.782 c 0.956,0 1.851,-0.105 2.682,-0.315 C -2.816,7.813 -2.092,7.484 -1.47,7.037 -0.85,6.588 -0.359,5.999 0,5.274 0.36,4.548 0.539,3.668 0.539,2.636 0.539,1.604 0.36,0.724 0,0 m -6.211,11.913 c -5.992,0 -10.85,-4.858 -10.85,-10.851 0,-5.992 4.858,-10.851 10.85,-10.851 5.994,0 10.852,4.859 10.852,10.851 0,5.993 -4.858,10.851 -10.852,10.851" /></g><g
         transform="translate(35.1348,42.6958)"
         id="g30"><path
           inkscape:connector-curvature="0"
           id="path32"
           style="fill:#ffffff;fill-opacity:1;fill-rule:nonzero;stroke:none"
           d="M 0,0 H -0.202 V -3.322 H 0 c 0.628,0 1.08,0.147 1.357,0.438 0.278,0.292 0.415,0.7 0.415,1.223 0,0.523 -0.137,0.932 -0.415,1.224 C 1.08,-0.146 0.628,0 0,0" /></g><g
         transform="translate(35.0508,28.6104)"
         id="g34"><path
           inkscape:connector-curvature="0"
           id="path36"
           style="fill:#2babde;fill-opacity:1;fill-rule:nonzero;stroke:none"
           d="m 0,0 c -5.992,0 -10.85,4.859 -10.85,10.851 0,5.992 4.858,10.851 10.85,10.851 5.994,0 10.852,-4.859 10.852,-10.851 C 10.852,4.859 5.994,0 0,0 M 9.262,20.448 C 4.146,25.562 -4.146,25.56 -9.262,20.447 -13.87,15.835 -14.387,7.158 -10.476,1.943 l 10.48,-15.13 10.475,15.134 c 3.912,5.214 3.392,13.893 -1.217,18.501" /></g><g
         transform="translate(36.4922,39.812)"
         id="g38"><path
           inkscape:connector-curvature="0"
           id="path40"
           style="fill:#2babde;fill-opacity:1;fill-rule:nonzero;stroke:none"
           d="M 0,0 C -0.277,-0.291 -0.729,-0.438 -1.357,-0.438 H -1.56 v 3.322 h 0.203 C -0.729,2.884 -0.277,2.737 0,2.447 0.277,2.154 0.415,1.746 0.415,1.223 0.415,0.7 0.277,0.292 0,0 M 3.3,5.624 C 2.678,6.071 1.953,6.4 1.122,6.61 0.292,6.82 -0.604,6.925 -1.56,6.925 H -6.342 V -8.047 h 4.782 v 3.57 c 0.956,0 1.852,0.103 2.682,0.313 0.831,0.208 1.556,0.539 2.178,0.988 0.62,0.449 1.11,1.036 1.47,1.763 0.36,0.724 0.539,1.604 0.539,2.636 C 5.309,2.255 5.13,3.135 4.77,3.861 4.41,4.586 3.92,5.175 3.3,5.624" /></g></g></g></svg>