<?xml version="1.0" encoding="UTF-8" standalone="no"?>
<!-- Created with Inkscape (http://www.inkscape.org/) -->

<svg
   xmlns:dc="http://purl.org/dc/elements/1.1/"
   xmlns:cc="http://creativecommons.org/ns#"
   xmlns:rdf="http://www.w3.org/1999/02/22-rdf-syntax-ns#"
   xmlns:svg="http://www.w3.org/2000/svg"
   xmlns="http://www.w3.org/2000/svg"
   xmlns:sodipodi="http://sodipodi.sourceforge.net/DTD/sodipodi-0.dtd"
   xmlns:inkscape="http://www.inkscape.org/namespaces/inkscape"
   version="1.1"
   id="svg2"
   xml:space="preserve"
   width="266.64932"
   height="88.465469"
   viewBox="0 0 266.64932 88.465469"
   sodipodi:docname="logo.svg"
   inkscape:version="0.92.0 r15299"><metadata
     id="metadata8"><rdf:RDF><cc:Work
         rdf:about=""><dc:format>image/svg+xml</dc:format><dc:type
           rdf:resource="http://purl.org/dc/dcmitype/StillImage" /><dc:title></dc:title></cc:Work></rdf:RDF></metadata><defs
     id="defs6"><clipPath
       clipPathUnits="userSpaceOnUse"
       id="clipPath20"><path
         d="M 0,66.349 H 199.987 V 0 H 0 Z"
         id="path18"
         inkscape:connector-curvature="0" /></clipPath></defs><sodipodi:namedview
     pagecolor="#ffffff"
     bordercolor="#666666"
     borderopacity="1"
     objecttolerance="10"
     gridtolerance="10"
     guidetolerance="10"
     inkscape:pageopacity="0"
     inkscape:pageshadow="2"
     inkscape:window-width="1366"
     inkscape:window-height="703"
     id="namedview4"
     showgrid="false"
     inkscape:zoom="1.0838205"
     inkscape:cx="-5.5359721"
     inkscape:cy="44.232735"
     inkscape:window-x="0"
     inkscape:window-y="0"
     inkscape:window-maximized="1"
     inkscape:current-layer="g10" /><g
     id="g10"
     inkscape:groupmode="layer"
     inkscape:label="logo_final"
     transform="matrix(1.3333333,0,0,-1.3333333,0,88.465467)"><g
       id="g14"><g
         id="g16"
         clip-path="url(#clipPath20)"><g
           id="g22"
           transform="translate(43.2793,15.7783)"><path
             d="m 0,0 c 0,-1.283 -3.684,-2.322 -8.229,-2.322 -4.541,0 -8.225,1.039 -8.225,2.322 0,1.284 3.684,2.323 8.225,2.323 C -3.684,2.323 0,1.284 0,0"
             style="fill:#bbcd13;fill-opacity:1;fill-rule:nonzero;stroke:none"
             id="path24"
             inkscape:connector-curvature="0" /></g><g
           id="g26"
           transform="translate(41.2617,38.3989)"><path
             d="m 0,0 c -0.359,-0.727 -0.85,-1.313 -1.47,-1.763 -0.622,-0.449 -1.346,-0.78 -2.177,-0.988 -0.831,-0.21 -1.726,-0.312 -2.682,-0.312 v -3.571 h -4.782 V 8.338 h 4.782 c 0.956,0 1.851,-0.105 2.682,-0.315 C -2.816,7.813 -2.092,7.484 -1.47,7.037 -0.85,6.588 -0.359,5.999 0,5.274 0.36,4.548 0.539,3.668 0.539,2.636 0.539,1.604 0.36,0.724 0,0 m -6.211,11.913 c -5.992,0 -10.85,-4.858 -10.85,-10.851 0,-5.992 4.858,-10.851 10.85,-10.851 5.994,0 10.852,4.859 10.852,10.851 0,5.993 -4.858,10.851 -10.852,10.851"
             style="fill:#ffffff;fill-opacity:1;fill-rule:nonzero;stroke:none"
             id="path28"
             inkscape:connector-curvature="0" /></g><g
           id="g30"
           transform="translate(35.1348,42.6958)"><path
             d="M 0,0 H -0.202 V -3.322 H 0 c 0.628,0 1.08,0.147 1.357,0.438 0.278,0.292 0.415,0.7 0.415,1.223 0,0.523 -0.137,0.932 -0.415,1.224 C 1.08,-0.146 0.628,0 0,0"
             style="fill:#ffffff;fill-opacity:1;fill-rule:nonzero;stroke:none"
             id="path32"
             inkscape:connector-curvature="0" /></g><g
           id="g34"
           transform="translate(35.0508,28.6104)"><path
             d="m 0,0 c -5.992,0 -10.85,4.859 -10.85,10.851 0,5.992 4.858,10.851 10.85,10.851 5.994,0 10.852,-4.859 10.852,-10.851 C 10.852,4.859 5.994,0 0,0 M 9.262,20.448 C 4.146,25.562 -4.146,25.56 -9.262,20.447 -13.87,15.835 -14.387,7.158 -10.476,1.943 l 10.48,-15.13 10.475,15.134 c 3.912,5.214 3.392,13.893 -1.217,18.501"
             style="fill:#2babde;fill-opacity:1;fill-rule:nonzero;stroke:none"
             id="path36"
             inkscape:connector-curvature="0" /></g><g
           id="g38"
           transform="translate(36.4922,39.812)"><path
             d="M 0,0 C -0.277,-0.291 -0.729,-0.438 -1.357,-0.438 H -1.56 v 3.322 h 0.203 C -0.729,2.884 -0.277,2.737 0,2.447 0.277,2.154 0.415,1.746 0.415,1.223 0.415,0.7 0.277,0.292 0,0 M 3.3,5.624 C 2.678,6.071 1.953,6.4 1.122,6.61 0.292,6.82 -0.604,6.925 -1.56,6.925 H -6.342 V -8.047 h 4.782 v 3.57 c 0.956,0 1.852,0.103 2.682,0.313 0.831,0.208 1.556,0.539 2.178,0.988 0.62,0.449 1.11,1.036 1.47,1.763 0.36,0.724 0.539,1.604 0.539,2.636 C 5.309,2.255 5.13,3.135 4.77,3.861 4.41,4.586 3.92,5.175 3.3,5.624"
             style="fill:#2babde;fill-opacity:1;fill-rule:nonzero;stroke:none"
             id="path40"
             inkscape:connector-curvature="0" /></g><g
           id="g42"
           transform="translate(58.6172,47.52)"><path
             d="M 0,0 5.737,-19.282 V 0 h 4.325 V -28.692 H 5.418 l -5.949,18.373 v -18.373 h -4.324 l 0,28.692 z"
             style="fill:#bbcd13;fill-opacity:1;fill-rule:nonzero;stroke:none"
             id="path44"
             inkscape:connector-curvature="0" /></g><g
           id="g46"
           transform="translate(72.2227,18.8281)"><path
             d="M 0,0 V 28.692 H 12.311 V 24.345 H 4.325 V 16.52 h 5.833 V 12.172 H 4.325 V 4.347 h 7.986 V 0 Z"
             style="fill:#bbcd13;fill-opacity:1;fill-rule:nonzero;stroke:none"
             id="path48"
             inkscape:connector-curvature="0" /></g><g
           id="g50"
           transform="translate(96.5869,40.5854)"><path
             d="M 0,0 C 0,0.75 -0.224,1.353 -0.675,1.811 -1.124,2.267 -1.723,2.497 -2.47,2.497 h -2.608 v -9.175 h 2.608 c 0.686,0 1.27,0.242 1.75,0.731 0.481,0.489 0.72,1.076 0.72,1.761 z m -2.585,6.911 c 2.106,0 3.783,-0.663 5.033,-1.99 C 3.608,3.655 4.187,2.038 4.187,0.07 v -4.164 c 0,-1.891 -0.659,-3.508 -1.978,-4.849 -1.32,-1.344 -2.917,-2.015 -4.794,-2.015 H -5.078 V -21.757 H -9.401 V 6.911 Z"
             style="fill:#2babde;fill-opacity:1;fill-rule:nonzero;stroke:none"
             id="path52"
             inkscape:connector-curvature="0" /></g><g
           id="g54"
           transform="translate(107.8779,41.561)"><path
             d="M 0,0 1.763,-5.923 V 0 H 3.092 V -8.813 H 1.665 l -1.828,5.644 V -8.813 H -1.491 V 0 Z"
             style="fill:#bbcd13;fill-opacity:1;fill-rule:nonzero;stroke:none"
             id="path56"
             inkscape:connector-curvature="0" /></g><g
           id="g58"
           transform="translate(114.2529,32.6489)"><path
             d="M 0,0 C -0.587,0 -1.083,0.203 -1.491,0.612 -1.897,1.02 -2.103,1.514 -2.103,2.094 v 6.813 h 1.301 V 2.108 c 0,-0.21 0.076,-0.389 0.225,-0.537 0.15,-0.148 0.331,-0.222 0.541,-0.222 0.211,0 0.391,0.074 0.538,0.222 0.148,0.148 0.222,0.327 0.222,0.537 V 8.907 H 2.108 V 2.094 C 2.108,1.505 1.902,1.008 1.49,0.604 1.077,0.201 0.581,0 0,0"
             style="fill:#bbcd13;fill-opacity:1;fill-rule:nonzero;stroke:none"
             id="path60"
             inkscape:connector-curvature="0" /></g><g
           id="g62"
           transform="translate(117.542,32.7476)"><path
             d="M 0,0 V 8.813 H 3.782 V 7.479 H 1.329 V 5.074 H 3.122 V 3.739 H 1.329 V 1.335 H 3.782 V 0 Z"
             style="fill:#bbcd13;fill-opacity:1;fill-rule:nonzero;stroke:none"
             id="path64"
             inkscape:connector-curvature="0" /></g><g
           id="g66"
           transform="translate(123.8125,32.7476)"><path
             d="m 0,0 -1.574,8.809 h 1.392 L 0.924,1.942 2.037,8.809 H 3.432 L 1.828,0 Z"
             style="fill:#bbcd13;fill-opacity:1;fill-rule:nonzero;stroke:none"
             id="path68"
             inkscape:connector-curvature="0" /></g><g
           id="g70"
           transform="translate(130.9844,39.5874)"><path
             d="M 0,0 C 0,0.21 -0.074,0.391 -0.223,0.537 -0.369,0.685 -0.55,0.76 -0.761,0.76 -0.971,0.76 -1.152,0.685 -1.303,0.537 -1.451,0.391 -1.525,0.21 -1.525,0 v -4.822 c 0,-0.211 0.074,-0.392 0.222,-0.538 0.151,-0.147 0.332,-0.221 0.542,-0.221 0.211,0 0.392,0.074 0.538,0.221 C -0.074,-5.214 0,-5.033 0,-4.822 Z m -0.725,2.081 c 0.586,0 1.084,-0.208 1.494,-0.618 0.41,-0.414 0.614,-0.91 0.614,-1.491 v -4.808 c 0,-0.587 -0.205,-1.085 -0.617,-1.496 -0.412,-0.409 -0.911,-0.615 -1.491,-0.615 -0.586,0 -1.083,0.208 -1.49,0.621 -0.408,0.411 -0.611,0.907 -0.611,1.49 v 4.808 c 0,0.586 0.205,1.084 0.617,1.494 0.414,0.41 0.906,0.615 1.484,0.615"
             style="fill:#bbcd13;fill-opacity:1;fill-rule:nonzero;stroke:none"
             id="path72"
             inkscape:connector-curvature="0" /></g><g
           id="g74"
           transform="translate(136.0234,32.7476)"><path
             d="M 0,0 V 8.813 H 3.783 V 7.479 H 1.329 V 5.074 H 3.121 V 3.739 H 1.329 V 1.335 H 3.783 L 3.783,0 Z"
             style="fill:#bbcd13;fill-opacity:1;fill-rule:nonzero;stroke:none"
             id="path76"
             inkscape:connector-curvature="0" /></g><g
           id="g78"
           transform="translate(145.1133,34.9409)"><path
             d="M 0,0 C 0.009,-0.614 -0.15,-1.139 -0.479,-1.574 -0.694,-1.871 -1,-2.079 -1.393,-2.201 c -0.211,-0.066 -0.457,-0.1 -0.737,-0.1 -0.52,0 -0.952,0.129 -1.294,0.388 -0.285,0.211 -0.512,0.499 -0.678,0.86 -0.168,0.365 -0.264,0.781 -0.293,1.25 l 1.266,0.091 c 0.057,-0.514 0.192,-0.887 0.409,-1.116 0.159,-0.174 0.342,-0.257 0.547,-0.248 0.291,0.01 0.523,0.152 0.696,0.429 0.089,0.136 0.135,0.33 0.135,0.585 0,0.366 -0.169,0.729 -0.5,1.089 -0.262,0.249 -0.656,0.622 -1.181,1.119 -0.441,0.427 -0.752,0.809 -0.936,1.147 -0.197,0.381 -0.295,0.794 -0.295,1.238 0,0.804 0.271,1.41 0.809,1.824 0.333,0.248 0.746,0.373 1.236,0.373 0.476,0 0.881,-0.108 1.217,-0.317 0.263,-0.165 0.474,-0.394 0.637,-0.69 0.162,-0.294 0.259,-0.633 0.291,-1.019 L -1.336,4.47 c -0.037,0.362 -0.141,0.641 -0.31,0.843 -0.122,0.147 -0.296,0.219 -0.527,0.219 -0.243,0 -0.429,-0.109 -0.555,-0.323 -0.103,-0.174 -0.154,-0.391 -0.154,-0.647 0,-0.404 0.173,-0.814 0.521,-1.23 0.13,-0.159 0.326,-0.348 0.59,-0.561 C -1.463,2.512 -1.259,2.33 -1.16,2.229 -0.832,1.899 -0.578,1.575 -0.401,1.259 -0.316,1.107 -0.249,0.97 -0.197,0.843 -0.07,0.528 -0.004,0.248 0,0"
             style="fill:#bbcd13;fill-opacity:1;fill-rule:nonzero;stroke:none"
             id="path80"
             inkscape:connector-curvature="0" /></g><g
           id="g82"
           transform="translate(149.1055,39.4331)"><path
             d="m 0,0 c 0,0.228 -0.07,0.415 -0.207,0.556 -0.139,0.139 -0.322,0.21 -0.552,0.21 h -0.802 v -2.819 h 0.802 c 0.212,0 0.39,0.074 0.538,0.225 C -0.072,-1.679 0,-1.498 0,-1.287 Z m -0.795,2.123 c 0.648,0 1.163,-0.204 1.548,-0.612 C 1.109,1.122 1.287,0.624 1.287,0.021 V -1.26 c 0,-0.581 -0.203,-1.077 -0.607,-1.489 -0.407,-0.412 -0.897,-0.618 -1.475,-0.618 h -0.766 v -3.319 h -1.328 v 8.809 z"
             style="fill:#bbcd13;fill-opacity:1;fill-rule:nonzero;stroke:none"
             id="path84"
             inkscape:connector-curvature="0" /></g><g
           id="g86"
           transform="translate(153.0078,39.5386)"><path
             d="m 0,0 -0.492,-3.473 h 0.984 z m -0.698,-4.767 -0.323,-2.024 h -1.383 l 1.497,8.809 H 0.921 L 2.397,-6.791 H 1 l -0.311,2.024 z"
             style="fill:#bbcd13;fill-opacity:1;fill-rule:nonzero;stroke:none"
             id="path88"
             inkscape:connector-curvature="0" /></g><g
           id="g90"
           transform="translate(158.4277,32.6353)"><path
             d="M 0,0 C -0.586,0 -1.084,0.204 -1.495,0.615 -1.904,1.024 -2.109,1.52 -2.109,2.102 v 4.807 c 0,0.586 0.206,1.085 0.619,1.495 C -1.078,8.813 -0.582,9.019 0,9.019 0.586,9.019 1.083,8.813 1.49,8.4 1.898,7.986 2.103,7.491 2.103,6.909 V 5.903 H 0.724 V 6.939 C 0.724,7.148 0.648,7.329 0.5,7.479 0.349,7.63 0.168,7.705 -0.043,7.705 -0.253,7.705 -0.434,7.63 -0.582,7.479 -0.729,7.329 -0.803,7.148 -0.803,6.939 V 2.116 c 0,-0.212 0.074,-0.391 0.221,-0.538 0.148,-0.148 0.329,-0.221 0.539,-0.221 0.211,0 0.392,0.073 0.543,0.221 0.148,0.147 0.224,0.326 0.224,0.538 V 3.332 H 2.103 V 2.102 C 2.103,1.517 1.896,1.019 1.482,0.611 1.07,0.202 0.576,0 0,0"
             style="fill:#bbcd13;fill-opacity:1;fill-rule:nonzero;stroke:none"
             id="path92"
             inkscape:connector-curvature="0" /></g><path
           d="m 162.948,32.748 h -1.329 v 8.809 h 1.329 z"
           style="fill:#bbcd13;fill-opacity:1;fill-rule:nonzero;stroke:none"
           id="path94"
           inkscape:connector-curvature="0" /><g
           id="g96"
           transform="translate(166.9473,39.5874)"><path
             d="M 0,0 C 0,0.21 -0.074,0.391 -0.221,0.537 -0.369,0.685 -0.548,0.76 -0.759,0.76 -0.97,0.76 -1.15,0.685 -1.3,0.537 -1.451,0.391 -1.525,0.21 -1.525,0 v -4.822 c 0,-0.211 0.074,-0.392 0.225,-0.538 0.15,-0.147 0.33,-0.221 0.541,-0.221 0.211,0 0.39,0.074 0.538,0.221 C -0.074,-5.214 0,-5.033 0,-4.822 Z m -0.725,2.081 c 0.588,0 1.084,-0.208 1.495,-0.618 0.41,-0.414 0.616,-0.91 0.616,-1.491 v -4.808 c 0,-0.587 -0.206,-1.085 -0.62,-1.496 -0.412,-0.409 -0.909,-0.615 -1.491,-0.615 -0.586,0 -1.082,0.208 -1.489,0.621 -0.409,0.411 -0.612,0.907 -0.612,1.49 v 4.808 c 0,0.586 0.205,1.084 0.619,1.494 0.412,0.41 0.907,0.615 1.482,0.615"
             style="fill:#bbcd13;fill-opacity:1;fill-rule:nonzero;stroke:none"
             id="path98"
             inkscape:connector-curvature="0" /></g><g
           id="g100"
           transform="translate(107.7148,20.2568)"><path
             d="M 0,0 H 0.802 C 1.013,0 1.189,0.075 1.336,0.228 1.48,0.38 1.555,0.559 1.555,0.766 v 4.611 c 0,0.21 -0.076,0.392 -0.223,0.54 -0.147,0.15 -0.324,0.227 -0.53,0.227 H 0 Z m 2.848,0.792 c 0,-0.58 -0.205,-1.076 -0.613,-1.49 C 1.828,-1.108 1.336,-1.316 0.76,-1.316 H -1.328 V 7.5 H 0.76 C 1.34,7.5 1.834,7.294 2.238,6.882 2.645,6.469 2.848,5.975 2.848,5.396 Z"
             style="fill:#2babde;fill-opacity:1;fill-rule:nonzero;stroke:none"
             id="path102"
             inkscape:connector-curvature="0" /></g><g
           id="g104"
           transform="translate(111.7285,18.9404)"><path
             d="M 0,0 V 8.816 H 3.783 V 7.48 H 1.328 V 5.076 H 3.121 V 3.739 H 1.328 V 1.336 H 3.783 L 3.783,0 Z"
             style="fill:#2babde;fill-opacity:1;fill-rule:nonzero;stroke:none"
             id="path106"
             inkscape:connector-curvature="0" /></g><g
           id="g108"
           transform="translate(122.0547,25.626)"><path
             d="m 0,0 c 0,0.23 -0.069,0.415 -0.207,0.557 -0.138,0.14 -0.322,0.21 -0.553,0.21 h -0.801 v -2.819 h 0.801 c 0.211,0 0.392,0.075 0.539,0.224 C -0.073,-1.677 0,-1.496 0,-1.286 Z m -0.794,2.122 c 0.648,0 1.162,-0.202 1.546,-0.609 0.357,-0.39 0.535,-0.887 0.535,-1.491 v -1.28 C 1.287,-1.839 1.084,-2.336 0.68,-2.748 0.272,-3.16 -0.218,-3.367 -0.794,-3.367 H -1.561 V -6.686 H -2.89 v 8.808 z"
             style="fill:#2babde;fill-opacity:1;fill-rule:nonzero;stroke:none"
             id="path110"
             inkscape:connector-curvature="0" /></g><g
           id="g112"
           transform="translate(125.957,25.7334)"><path
             d="m 0,0 -0.492,-3.475 h 0.984 z m -0.698,-4.767 -0.323,-2.026 h -1.383 l 1.496,8.808 H 0.92 L 2.396,-6.793 H 1 l -0.311,2.026 z"
             style="fill:#2babde;fill-opacity:1;fill-rule:nonzero;stroke:none"
             id="path114"
             inkscape:connector-curvature="0" /></g><g
           id="g116"
           transform="translate(132.3613,25.626)"><path
             d="m 0,0 c 0,0.51 -0.254,0.767 -0.76,0.767 h -0.801 v -2.819 h 0.801 c 0.211,0 0.39,0.075 0.538,0.224 C -0.074,-1.677 0,-1.496 0,-1.286 Z m -0.795,2.122 c 0.74,0 1.283,-0.202 1.631,-0.609 C 1.141,1.155 1.293,0.659 1.293,0.022 v -1.28 c 0,-0.624 -0.236,-1.15 -0.709,-1.581 L 1.567,-6.686 H 0.13 l -0.805,3.319 h -0.12 -0.766 V -6.686 H -2.89 v 8.808 z"
             style="fill:#2babde;fill-opacity:1;fill-rule:nonzero;stroke:none"
             id="path118"
             inkscape:connector-curvature="0" /></g><g
           id="g120"
           transform="translate(136.0449,26.4141)"><path
             d="M 0,0 H -1.414 V 1.334 H 2.734 V 0 H 1.328 V -7.474 H 0 Z"
             style="fill:#2babde;fill-opacity:1;fill-rule:nonzero;stroke:none"
             id="path122"
             inkscape:connector-curvature="0" /></g><path
           d="m 141.177,18.94 h -1.33 v 8.808 h 1.33 z"
           style="fill:#2babde;fill-opacity:1;fill-rule:nonzero;stroke:none"
           id="path124"
           inkscape:connector-curvature="0" /><g
           id="g126"
           transform="translate(144.459,18.8281)"><path
             d="m 0,0 c -0.586,0 -1.084,0.207 -1.494,0.615 -0.41,0.41 -0.615,0.906 -0.615,1.488 v 4.808 c 0,0.585 0.205,1.083 0.619,1.492 C -1.078,8.814 -0.582,9.02 0,9.02 0.586,9.02 1.083,8.814 1.49,8.401 1.897,7.989 2.102,7.492 2.102,6.911 V 5.906 H 0.725 V 6.938 C 0.725,7.15 0.648,7.33 0.5,7.48 0.35,7.629 0.169,7.705 -0.042,7.705 -0.252,7.705 -0.433,7.629 -0.58,7.48 -0.728,7.33 -0.803,7.15 -0.803,6.938 V 2.116 c 0,-0.211 0.075,-0.39 0.223,-0.537 0.147,-0.148 0.328,-0.223 0.538,-0.223 0.211,0 0.392,0.075 0.542,0.223 0.148,0.147 0.225,0.326 0.225,0.537 V 3.333 H 2.102 V 2.103 C 2.102,1.517 1.896,1.02 1.484,0.612 1.071,0.205 0.576,0 0,0"
             style="fill:#2babde;fill-opacity:1;fill-rule:nonzero;stroke:none"
             id="path128"
             inkscape:connector-curvature="0" /></g><path
           d="m 148.979,18.94 h -1.329 v 8.808 h 1.329 z"
           style="fill:#2babde;fill-opacity:1;fill-rule:nonzero;stroke:none"
           id="path130"
           inkscape:connector-curvature="0" /><g
           id="g132"
           transform="translate(153.0566,25.626)"><path
             d="m 0,0 c 0,0.23 -0.069,0.415 -0.207,0.557 -0.139,0.14 -0.322,0.21 -0.551,0.21 h -0.803 v -2.819 h 0.803 c 0.209,0 0.389,0.075 0.537,0.224 C -0.074,-1.677 0,-1.496 0,-1.286 Z m -0.794,2.122 c 0.646,0 1.161,-0.202 1.546,-0.609 0.356,-0.39 0.534,-0.887 0.534,-1.491 v -1.28 c 0,-0.581 -0.202,-1.078 -0.608,-1.49 -0.405,-0.412 -0.897,-0.619 -1.472,-0.619 h -0.767 v -3.319 h -1.328 v 8.808 z"
             style="fill:#2babde;fill-opacity:1;fill-rule:nonzero;stroke:none"
             id="path134"
             inkscape:connector-curvature="0" /></g><g
           id="g136"
           transform="translate(156.958,25.7334)"><path
             d="m 0,0 -0.492,-3.475 h 0.983 z m -0.698,-4.767 -0.323,-2.026 h -1.382 l 1.496,8.808 H 0.921 L 2.397,-6.793 H 1.001 l -0.313,2.026 z"
             style="fill:#2babde;fill-opacity:1;fill-rule:nonzero;stroke:none"
             id="path138"
             inkscape:connector-curvature="0" /></g><g
           id="g140"
           transform="translate(162.3779,18.8281)"><path
             d="m 0,0 c -0.585,0 -1.084,0.207 -1.493,0.615 -0.411,0.41 -0.615,0.906 -0.615,1.488 v 4.808 c 0,0.585 0.207,1.083 0.617,1.492 C -1.078,8.814 -0.581,9.02 0,9.02 0.586,9.02 1.083,8.814 1.49,8.401 1.897,7.989 2.103,7.492 2.103,6.911 V 5.906 H 0.724 V 6.938 C 0.724,7.15 0.649,7.33 0.499,7.48 0.351,7.629 0.169,7.705 -0.042,7.705 -0.253,7.705 -0.433,7.629 -0.579,7.48 -0.728,7.33 -0.802,7.15 -0.802,6.938 V 2.116 c 0,-0.211 0.074,-0.39 0.223,-0.537 0.146,-0.148 0.326,-0.223 0.537,-0.223 0.211,0 0.393,0.075 0.541,0.223 0.15,0.147 0.225,0.326 0.225,0.537 V 3.333 H 2.103 V 2.103 C 2.103,1.517 1.896,1.02 1.483,0.612 1.071,0.205 0.577,0 0,0"
             style="fill:#2babde;fill-opacity:1;fill-rule:nonzero;stroke:none"
             id="path142"
             inkscape:connector-curvature="0" /></g><path
           d="m 166.898,18.94 h -1.33 v 8.808 h 1.33 z"
           style="fill:#2babde;fill-opacity:1;fill-rule:nonzero;stroke:none"
           id="path144"
           inkscape:connector-curvature="0" /><g
           id="g146"
           transform="translate(170.8984,25.7813)"><path
             d="m 0,0 c 0,0.211 -0.073,0.39 -0.222,0.539 -0.146,0.148 -0.327,0.22 -0.537,0.22 -0.211,0 -0.393,-0.072 -0.542,-0.22 C -1.449,0.39 -1.525,0.211 -1.525,0 v -4.823 c 0,-0.211 0.076,-0.389 0.224,-0.538 0.149,-0.148 0.331,-0.221 0.542,-0.221 0.21,0 0.391,0.073 0.537,0.221 C -0.073,-5.212 0,-5.034 0,-4.823 Z m -0.724,2.08 c 0.585,0 1.083,-0.205 1.494,-0.618 0.41,-0.411 0.615,-0.909 0.615,-1.49 v -4.809 c 0,-0.586 -0.206,-1.083 -0.618,-1.493 -0.413,-0.411 -0.911,-0.614 -1.491,-0.614 -0.587,0 -1.083,0.205 -1.49,0.617 -0.409,0.412 -0.612,0.91 -0.612,1.49 v 4.809 c 0,0.586 0.207,1.084 0.619,1.494 0.412,0.411 0.906,0.614 1.483,0.614"
             style="fill:#2babde;fill-opacity:1;fill-rule:nonzero;stroke:none"
             id="path148"
             inkscape:connector-curvature="0" /></g><g
           id="g150"
           transform="translate(174.9414,27.7568)"><path
             d="M 0,0 1.764,-5.925 V 0 H 3.092 V -8.816 H 1.665 l -1.827,5.645 v -5.645 h -1.33 V 0 Z"
             style="fill:#2babde;fill-opacity:1;fill-rule:nonzero;stroke:none"
             id="path152"
             inkscape:connector-curvature="0" /></g></g></g></g></svg>